<svg width="40" height="40" viewBox="0 0 40 40" fill="none" xmlns="http://www.w3.org/2000/svg">
<path d="M0 39.4015L7.67503 0L14.8393 24.5618L0 39.4015Z" fill="url(#paint0_linear_125_189)"/>
<path d="M39.4013 31.7247L14.8393 24.5618L0 39.4015L39.4013 31.7247Z" fill="url(#paint1_linear_125_189)"/>
<path d="M39.4013 31.7247L14.8393 24.5618L7.67503 0L32.2371 7.16294L39.4013 31.7247Z" fill="#D9D9D9"/>
<path d="M14.8393 24.5618L7.67503 0L32.2371 7.16294L14.8393 24.5618Z" fill="url(#paint2_linear_125_189)"/>
<path d="M14.8393 24.5618L32.2371 7.16294L39.4013 31.7247L14.8393 24.5618Z" fill="url(#paint3_linear_125_189)"/>
<defs>
<linearGradient id="paint0_linear_125_189" x1="4.8335" y1="32.0557" x2="8.83349" y2="11.0557" gradientUnits="userSpaceOnUse">
<stop stop-color="#F0A050"/>
<stop offset="1" stop-color="#E64646"/>
</linearGradient>
<linearGradient id="paint1_linear_125_189" x1="11.3335" y1="34.5557" x2="25.3335" y2="31.5557" gradientUnits="userSpaceOnUse">
<stop stop-color="#F0C846"/>
<stop offset="1" stop-color="#78DC46"/>
</linearGradient>
<linearGradient id="paint2_linear_125_189" x1="12.3335" y1="6.55566" x2="23.8335" y2="10.0557" gradientUnits="userSpaceOnUse">
<stop stop-color="#C84678"/>
<stop offset="1" stop-color="#A032C8"/>
</linearGradient>
<linearGradient id="paint3_linear_125_189" x1="32.8236" y1="24.6121" x2="29.7324" y2="15.0364" gradientUnits="userSpaceOnUse">
<stop stop-color="#5A78DC"/>
<stop offset="1" stop-color="#5028C8"/>
</linearGradient>
</defs>
</svg>
